<svg id="Icons" height="512" viewBox="0 0 512 512" width="512" xmlns="http://www.w3.org/2000/svg"><circle cx="256" cy="256" fill="#8d00af" r="256"/><path d="m473.68 390.75c-71.29 115.35-221.33 155.62-341.35 89.39-118.33-65.31-164.69-210.56-108.8-331.37 23.47-6.59 44.35-24.39 69-25.9 26.49-1.64 52.5 19 56.89 45.21 3 17.77-2.95 36.3 1.09 53.87 4.47 19.46 22.12 35.15 42 37.31 7.87.86 16.08-.18 23.55 2.46 11.3 4 18.38 15.41 29.14 20.68 13.09 6.42 28.85 2.51 42.25-3.28s26.49-13.45 41-14.47c25.16-1.75 47.93 17.61 58.25 40.61 7.64 17 10.51 36.8 23.32 50.31 16.76 17.7 45.85 19.43 63.66 35.18z" fill="#aa0dd1"/><g id="Apple"><path d="m324.93 226.05a48.89 48.89 0 1 1 -97.78 0c0-14 5.88-23.42 15.31-29.25 8.76-5.42 20.58-7.73 33.57-7.73 26.97 0 48.9 9.98 48.9 36.98z" fill="#14a36d"/><path d="m324.93 226.05a48.67 48.67 0 0 1 -9.39 28.81 48.9 48.9 0 0 1 -77.71-39.5c0-7.42 1.66-13.57 4.63-18.56 8.76-5.42 20.58-7.73 33.57-7.73 26.97 0 48.9 9.98 48.9 36.98z" fill="#15be79"/><ellipse cx="272.52" cy="204.43" fill="#14a36d" rx="22.83" ry="7.96" transform="matrix(.997 -.078 .078 .997 -15.16 21.95)"/><ellipse cx="285.7" cy="225.54" fill="#33db92" rx="16.43" ry="9.07" transform="matrix(.966 -.259 .259 .966 -48.64 81.63)"/><ellipse cx="306.68" cy="209.06" fill="#33db92" rx="9.91" ry="5.47" transform="matrix(.187 -.982 .982 .187 43.88 471.15)"/><path d="m245.44 163.61c2.37 4.17 23.86 15.81 23.86 15.81a6.44 6.44 0 0 1 1.89 4.58v22.27a3.15 3.15 0 0 0 6.29 0v-22.27a12.74 12.74 0 0 0 -3.73-9l-19.26-19.24-1.07-1.08a3.14 3.14 0 0 0 -4.45 0c-1.23 1.2-5.43 5.62-3.53 8.93z" fill="#7a2b13"/><path d="m251.24 163.76c2.11 3.69 21.09 14 21.09 14a5.69 5.69 0 0 1 1.68 4v19.68a2.77 2.77 0 0 0 2.78 2.78 2.26 2.26 0 0 0 .69-.1v-20.12a12.74 12.74 0 0 0 -3.73-9l-19.26-19.24-.12.11c-1.09 1.06-4.8 4.97-3.13 7.89z" fill="#8c4735"/></g><g id="Apple-2" data-name="Apple"><path d="m342.73 266.38a48.89 48.89 0 0 1 -87.79 43.05c-6.17-12.57-5-23.63.87-33 5.48-8.72 15.07-16 26.74-21.72 24.25-11.9 48.3-12.57 60.18 11.67z" fill="#14a36d"/><path d="m342.73 266.38a48.64 48.64 0 0 1 4.26 30 48.89 48.89 0 0 1 -87.16-1.25c-3.27-6.67-4.49-12.92-4-18.71 5.48-8.72 15.07-16 26.74-21.72 24.23-11.89 48.28-12.56 60.16 11.68z" fill="#15be79"/><ellipse cx="286.16" cy="270.04" fill="#14a36d" rx="22.83" ry="7.96" transform="matrix(.861 -.509 .509 .861 -97.62 183.33)"/><g fill="#33db92"><ellipse cx="307.29" cy="283.19" rx="16.43" ry="9.07" transform="matrix(.753 -.658 .658 .753 -110.44 271.95)"/><ellipse cx="318.87" cy="259.15" rx="5.47" ry="9.91" transform="matrix(.964 -.264 .264 .964 -57.15 93.49)"/></g></g><path d="m121.58 147.28 178.42 178.38c12.16 12.16 26.27 43.48 20.35 60.48a16.65 16.65 0 0 1 -3.88 6.37c-13.96 13.91-52.98-2.51-66.9-16.51l-178.37-178.34c-13.92-13.91-30.39-52.93-16.47-66.85a16.53 16.53 0 0 1 6.37-3.88c7.28-2.54 17.17-1.4 27.06 1.68 13.23 4.12 26.47 11.72 33.42 18.67z" fill="#f39e22"/><path d="m121.58 147.28 178.42 178.38c12.16 12.16 26.27 43.48 20.35 60.48-17 5.93-48.33-8.18-60.5-20.34l-178.41-178.37c-12.17-12.17-26.27-43.51-20.34-60.5 7.28-2.54 17.17-1.4 27.06 1.68 13.23 4.12 26.47 11.72 33.42 18.67z" fill="#f9c744"/><g fill="#f9eaa5"><path d="m163.81 283.43 12.1-3.8a42 42 0 0 0 27.64-27.63l3.8-12.1-12.1 3.8a42 42 0 0 0 -27.65 27.64z"/><path d="m195.4 315 12.1-3.79a42 42 0 0 0 27.64-27.65l3.8-12.1-12.1 3.8a42 42 0 0 0 -27.64 27.64z"/><path d="m227 346.61 12.11-3.79a42 42 0 0 0 27.64-27.64l3.79-12.1-12.1 3.79a42 42 0 0 0 -27.64 27.64z"/><path d="m260.23 374.81 10.7-3.36a37.09 37.09 0 0 0 24.44-24.45l3.36-10.7-10.73 3.37a37.09 37.09 0 0 0 -24.44 24.44z"/><path d="m72.43 187 10.7-3.36a37.13 37.13 0 0 0 24.44-24.44l3.36-10.7-10.71 3.35a37.15 37.15 0 0 0 -24.44 24.45z"/></g><ellipse cx="135.04" cy="179.2" fill="#fad98f" rx="10.02" ry="30.97" transform="matrix(.707 -.707 .707 .707 -87.16 147.97)"/><ellipse cx="175.45" cy="219.62" fill="#fad98f" rx="6.61" ry="20.43" transform="matrix(.707 -.707 .707 .707 -103.9 188.39)"/><path d="m175.75 208.3-.67 2.13-3.12 10a39.25 39.25 0 0 1 -1.36 3.72 42 42 0 0 1 -26.28 23.85l-12.11 3.79 3.8-12.09a41.94 41.94 0 0 1 25.92-27.06c.56-.21 1.14-.4 1.73-.59l9.63-3z" fill="#f9eaa5"/><path d="m144.16 176.71-3.79 12.09a44 44 0 0 1 -2.44 6.11 42 42 0 0 1 -25.21 21.53l-12.1 3.81 3.8-12.11a42 42 0 0 1 27.64-27.64z" fill="#f9eaa5"/><path d="m144.16 176.71-3.79 12.09a44 44 0 0 1 -2.44 6.11 86.32 86.32 0 0 1 -10-8.63c-1-1-1.92-1.95-2.82-2.93a42.09 42.09 0 0 1 6.92-2.85z" fill="#faefdc"/><path d="m175.08 210.43-3.12 10a39.25 39.25 0 0 1 -1.36 3.72 48.57 48.57 0 0 1 -8.67-11.43c.56-.21 1.14-.4 1.73-.59l9.63-3c.6.37 1.19.81 1.79 1.3z" fill="#faefdc"/><path d="m132.15 386.23h97.48a9.38 9.38 0 0 0 9.37-9.37v-188.48h-116.22v188.48a9.38 9.38 0 0 0 9.37 9.37z" fill="#22bce0"/><path d="m148.74 188.38h90.26a0 0 0 0 1 0 0v188.48a9.37 9.37 0 0 1 -9.37 9.37h-71.52a9.37 9.37 0 0 1 -9.37-9.37v-188.48a0 0 0 0 1 0 0z" fill="#4fcae8"/><path d="m135.76 166.26h90.26l12.98 22.12h-90.26z" fill="#f9f2f9"/><path d="m141.06 147.17h79.66a5.3 5.3 0 0 1 5.3 5.3v13.79a0 0 0 0 1 0 0h-90.26a0 0 0 0 1 0 0v-13.79a5.3 5.3 0 0 1 5.3-5.3z" fill="#ebd9ea"/><path d="m239 304.84v72a9.38 9.38 0 0 1 -9.38 9.37h-97.47a9.37 9.37 0 0 1 -9.37-9.37v-72h26c11.28 0 11.28 13 22.56 13s11.28-13 22.57-13 11.28 13 22.56 13 11.25-13 22.53-13z" fill="#ebd9ea"/><path d="m148.74 188.38h-25.96l12.98-22.12z" fill="#decee5"/><path d="m239 304.84v72a9.38 9.38 0 0 1 -9.38 9.37h-71.51a9.38 9.38 0 0 1 -9.37-9.37v-72c11.28 0 11.28 13 22.56 13s11.28-13 22.57-13 11.28 13 22.56 13 11.29-13 22.57-13z" fill="#f9f2f9"/><path d="m199.6 276.77a20 20 0 0 1 -5.73.82 20.46 20.46 0 0 1 -19.65-26.18l17.42-46.3a2.38 2.38 0 0 1 4.46 0l17.42 46.3a20.46 20.46 0 0 1 -13.92 25.36z" fill="#f4e6f4"/><path d="m199.6 276.77a20.48 20.48 0 0 1 -15.13-22.62l10.53-48.34a2.38 2.38 0 0 1 .77-1.31 2.4 2.4 0 0 1 .34.61l17.42 46.3a20.46 20.46 0 0 1 -13.93 25.36z" fill="#f9f2f9"/><ellipse cx="199.2" cy="239.12" fill="#fff" rx="5.08" ry="9.1" transform="matrix(.991 -.132 .132 .991 -29.74 28.3)"/><ellipse cx="201.79" cy="258.63" fill="#fff" rx="3.3" ry="5.74" transform="matrix(.991 -.132 .132 .991 -32.29 28.81)"/><ellipse cx="226.77" cy="210.77" fill="#83d5ef" rx="9.89" ry="17.73"/><ellipse cx="226.77" cy="246.89" fill="#83d5ef" rx="7.24" ry="12.99"/><path d="m401.62 279.36v101.12a5.75 5.75 0 0 1 -5.75 5.75h-83.43a5.74 5.74 0 0 1 -5.75-5.75v-101.12a25.9 25.9 0 0 1 14.67-23.36 20.29 20.29 0 0 0 11.22-18.37v-36.04h43.14v36.06a20.3 20.3 0 0 0 11.28 18.35 25.92 25.92 0 0 1 14.62 23.36z" fill="#8c4735"/><path d="m401.62 279.36v92.82h-57.35a22.56 22.56 0 0 1 -22.57-22.56v-62.16a25.91 25.91 0 0 1 14.66-23.34 20.3 20.3 0 0 0 11.24-18.37v-44.16h28.12v36.06a20.3 20.3 0 0 0 11.28 18.35 25.92 25.92 0 0 1 14.62 23.36z" fill="#a05740"/><ellipse cx="368.74" cy="220.29" fill="#b76049" rx="5.42" ry="15.75"/><ellipse cx="368.74" cy="246.67" fill="#b76049" rx="3.1" ry="9"/><path d="m306.69 279.36h94.93v70.26h-94.93z" fill="#decee5"/><path d="m323 279.36a25.84 25.84 0 0 0 -1.31 8.1v62.16h79.92v-70.26z" fill="#f4e6f4"/><ellipse cx="390.13" cy="298.22" fill="#fff" rx="7.56" ry="15.75"/><ellipse cx="390.13" cy="328.84" fill="#fff" rx="5.33" ry="11.44"/><circle cx="354.15" cy="314.49" fill="#fa4654" r="26.86"/><circle cx="354.15" cy="314.49" fill="#fff" r="18.24"/><path d="m382.56 194v7.57h-56.82v-7.57a9.43 9.43 0 0 1 9.47-9.45h37.89a9.45 9.45 0 0 1 9.46 9.45z" fill="#fa4654"/><path d="m382.56 194v1.9h-51.15v-7.56a9.37 9.37 0 0 1 .56-3.23 9.47 9.47 0 0 1 3.24-.56h37.89a9.45 9.45 0 0 1 9.46 9.45z" fill="#fb626e"/><ellipse cx="353.51" cy="188.86" fill="#fa80a4" rx="11.33" ry="4.08"/><ellipse cx="372.48" cy="188.86" fill="#fa80a4" rx="6.48" ry="2.33"/><path d="m439.09 234.33v12.16a10.74 10.74 0 0 1 -10.74 10.74h-344.7a10.74 10.74 0 0 1 -10.74-10.74v-12.16c0-.27 0-.53 0-.79a10.74 10.74 0 0 1 10.71-10h344.7a10.74 10.74 0 0 1 10.71 10c.05.26.06.52.06.79z" fill="#e52e44"/><path d="m439.06 233.54a10.74 10.74 0 0 1 -10.71 10h-344.7a10 10 0 1 1 0-19.93h344.7a10.74 10.74 0 0 1 10.71 9.93z" fill="#fa4654"/><path d="m419.49 257.23-2.69 19.51-16.69 121.44a20.45 20.45 0 0 1 -20.26 17.67h-247.7a20.45 20.45 0 0 1 -20.26-17.67l-16.69-121.44-2.69-19.51h30.49l2.68 19.51 15.06 109.49h27l-11.5-109.49-2.05-19.51h33.81l1.38 19.51 7.71 109.49h29.3l-3.88-109.49-.68-19.51h68.4l-.68 19.51-3.88 109.49h29.3l7.71-109.49 1.32-19.51h33.78l-2.05 19.51-11.5 109.49h27l15.06-109.49 2.71-19.51z" fill="#e52e44"/><path d="m416.8 276.74-16.69 121.44h-288.22l-16.69-121.44h30.52l15.05 109.49h27l-11.53-109.49h33.11l7.71 109.49h29.3l-3.88-109.49h67.04l-3.88 109.49h29.3l7.71-109.49h33.11l-11.53 109.49h27l15.06-109.49z" fill="#fa4654"/><ellipse cx="128.92" cy="232.14" fill="#fb626e" rx="36.41" ry="8.56"/><ellipse cx="195.94" cy="232.14" fill="#fb626e" rx="22.09" ry="6.31"/><path d="m332.59 201.58v19.11l-2.89 2.89h-4.85a38.65 38.65 0 0 0 -1-7.24 32.42 32.42 0 0 0 -2.69-7.34l7.41-7.42z" fill="#2e3140"/><path d="m377.85 175.42-9.14 9.14h-23.12l20.7-20.7a1.12 1.12 0 0 0 0-1.59l-4.75-4.74-4-4a1.12 1.12 0 0 0 -1.59 0l-92.67 92.66a8.18 8.18 0 0 1 -11.56 0 7.88 7.88 0 0 1 -1.86-2.88 8.14 8.14 0 0 1 1.86-8.69l92.66-92.62a17.5 17.5 0 0 1 24.71 0l4 4 .12.12 4.63 4.62a17.5 17.5 0 0 1 .01 24.68z" fill="#2e3140"/><path d="m332.59 201.58v9.42a32.6 32.6 0 0 1 -8.75 5.3 32.42 32.42 0 0 0 -2.69-7.34l7.41-7.42z" fill="#334353"/><path d="m373.1 170.68-13.87 13.88h-13.64l20.7-20.7a1.12 1.12 0 0 0 0-1.59l-4.75-4.74-4-4-4.74-4.76a1.14 1.14 0 0 0 -1.59 0l-92.67 92.67a8.15 8.15 0 0 1 -8.68 1.87 8.14 8.14 0 0 1 1.86-8.69l92.66-92.62a17.5 17.5 0 0 1 24.71 0l4 4 .12.12a17.49 17.49 0 0 1 -.11 24.56z" fill="#334353"/><ellipse cx="334.94" cy="158.22" fill="#3f5d77" rx="14.37" ry="4.82" transform="matrix(.707 -.707 .707 .707 -13.78 283.18)"/><ellipse cx="315.02" cy="178.15" fill="#3f5d77" rx="9.76" ry="3.28" transform="matrix(.707 -.707 .707 .707 -33.7 274.93)"/><path d="m271.35 240.4a13.83 13.83 0 1 1 -7.28-12.2 13.82 13.82 0 0 1 7.28 12.2z" fill="#334353"/><path d="m265.74 234.79a13.86 13.86 0 0 1 -20.44 12.21 13.86 13.86 0 0 1 18.77-18.78 13.65 13.65 0 0 1 1.67 6.57z" fill="#3e4e60"/><circle cx="257.5" cy="240.4" fill="#2e3140" r="7.27"/></svg>