<svg width="512" height="512" xmlns="http://www.w3.org/2000/svg">
 <g>
  <title>Layer 1</title>
  <circle cx="256" cy="256" fill="#4f6993" r="256" id="svg_1"/>
  <path d="m473.68,390.75c-71.29,115.35 -221.33,155.62 -341.35,89.39c-118.33,-65.31 -164.69,-210.56 -108.8,-331.37c23.47,-6.59 44.35,-24.39 69,-25.9c26.49,-1.64 52.5,19 56.89,45.21c3,17.77 -2.95,36.3 1.09,53.87c4.47,19.46 22.12,35.15 42,37.31c7.87,0.86 16.08,-0.18 23.55,2.46c11.3,4 18.38,15.41 29.14,20.68c13.09,6.42 28.85,2.51 42.25,-3.28s26.49,-13.45 41,-14.47c25.16,-1.75 47.93,17.61 58.25,40.61c7.64,17 10.51,36.8 23.32,50.31c16.76,17.7 45.85,19.43 63.66,35.18z" fill="#6580ad" id="svg_2"/>
  <g id="Apple">
   <path d="m324.93,226.05a48.89,48.89 0 1 1 -97.78,0c0,-14 5.88,-23.42 15.31,-29.25c8.76,-5.42 20.58,-7.73 33.57,-7.73c26.97,0 48.9,9.98 48.9,36.98z" fill="#14a36d" id="svg_3"/>
   <path d="m324.93,226.05a48.67,48.67 0 0 1 -9.39,28.81a48.9,48.9 0 0 1 -77.71,-39.5c0,-7.42 1.66,-13.57 4.63,-18.56c8.76,-5.42 20.58,-7.73 33.57,-7.73c26.97,0 48.9,9.98 48.9,36.98z" fill="#15be79" id="svg_4"/>
   <ellipse cx="272.52" cy="204.43" fill="#14a36d" rx="22.83" ry="7.96" transform="matrix(.997 -.078 .078 .997 -15.16 21.95)" id="svg_5"/>
   <ellipse cx="285.7" cy="225.54" fill="#33db92" rx="16.43" ry="9.07" transform="matrix(.966 -.259 .259 .966 -48.64 81.63)" id="svg_6"/>
   <ellipse cx="306.68" cy="209.06" fill="#33db92" rx="9.91" ry="5.47" transform="matrix(.187 -.982 .982 .187 43.88 471.15)" id="svg_7"/>
   <path d="m245.44,163.61c2.37,4.17 23.86,15.81 23.86,15.81a6.44,6.44 0 0 1 1.89,4.58l0,22.27a3.15,3.15 0 0 0 6.29,0l0,-22.27a12.74,12.74 0 0 0 -3.73,-9l-19.26,-19.24l-1.07,-1.08a3.14,3.14 0 0 0 -4.45,0c-1.23,1.2 -5.43,5.62 -3.53,8.93z" fill="#7a2b13" id="svg_8"/>
   <path d="m251.24,163.76c2.11,3.69 21.09,14 21.09,14a5.69,5.69 0 0 1 1.68,4l0,19.68a2.77,2.77 0 0 0 2.78,2.78a2.26,2.26 0 0 0 0.69,-0.1l0,-20.12a12.74,12.74 0 0 0 -3.73,-9l-19.26,-19.24l-0.12,0.11c-1.09,1.06 -4.8,4.97 -3.13,7.89z" fill="#8c4735" id="svg_9"/>
  </g>
  <g id="Apple-2">
   <path d="m342.73,266.38a48.89,48.89 0 0 1 -87.79,43.05c-6.17,-12.57 -5,-23.63 0.87,-33c5.48,-8.72 15.07,-16 26.74,-21.72c24.25,-11.9 48.3,-12.57 60.18,11.67z" fill="#14a36d" id="svg_10"/>
   <path d="m342.73,266.38a48.64,48.64 0 0 1 4.26,30a48.89,48.89 0 0 1 -87.16,-1.25c-3.27,-6.67 -4.49,-12.92 -4,-18.71c5.48,-8.72 15.07,-16 26.74,-21.72c24.23,-11.89 48.28,-12.56 60.16,11.68z" fill="#15be79" id="svg_11"/>
   <ellipse cx="286.16" cy="270.04" fill="#14a36d" rx="22.83" ry="7.96" transform="matrix(.861 -.509 .509 .861 -97.62 183.33)" id="svg_12"/>
   <g fill="#33db92" id="svg_13">
    <ellipse cx="307.29" cy="283.19" rx="16.43" ry="9.07" transform="matrix(.753 -.658 .658 .753 -110.44 271.95)" id="svg_14"/>
    <ellipse cx="318.87" cy="259.15" rx="5.47" ry="9.91" transform="matrix(.964 -.264 .264 .964 -57.15 93.49)" id="svg_15"/>
   </g>
  </g>
  <path d="m121.58,147.28l178.42,178.38c12.16,12.16 26.27,43.48 20.35,60.48a16.65,16.65 0 0 1 -3.88,6.37c-13.96,13.91 -52.98,-2.51 -66.9,-16.51l-178.37,-178.34c-13.92,-13.91 -30.39,-52.93 -16.47,-66.85a16.53,16.53 0 0 1 6.37,-3.88c7.28,-2.54 17.17,-1.4 27.06,1.68c13.23,4.12 26.47,11.72 33.42,18.67z" fill="#f39e22" id="svg_16"/>
  <path d="m121.58,147.28l178.42,178.38c12.16,12.16 26.27,43.48 20.35,60.48c-17,5.93 -48.33,-8.18 -60.5,-20.34l-178.41,-178.37c-12.17,-12.17 -26.27,-43.51 -20.34,-60.5c7.28,-2.54 17.17,-1.4 27.06,1.68c13.23,4.12 26.47,11.72 33.42,18.67z" fill="#f9c744" id="svg_17"/>
  <g fill="#f9eaa5" id="svg_18">
   <path d="m163.81,283.43l12.1,-3.8a42,42 0 0 0 27.64,-27.63l3.8,-12.1l-12.1,3.8a42,42 0 0 0 -27.65,27.64l-3.79,12.09z" id="svg_19"/>
   <path d="m195.4,315l12.1,-3.79a42,42 0 0 0 27.64,-27.65l3.8,-12.1l-12.1,3.8a42,42 0 0 0 -27.64,27.64l-3.8,12.1z" id="svg_20"/>
   <path d="m227,346.61l12.11,-3.79a42,42 0 0 0 27.64,-27.64l3.79,-12.1l-12.1,3.79a42,42 0 0 0 -27.64,27.64l-3.8,12.1z" id="svg_21"/>
   <path d="m260.23,374.81l10.7,-3.36a37.09,37.09 0 0 0 24.44,-24.45l3.36,-10.7l-10.73,3.37a37.09,37.09 0 0 0 -24.44,24.44l-3.33,10.7z" id="svg_22"/>
   <path d="m72.43,187l10.7,-3.36a37.13,37.13 0 0 0 24.44,-24.44l3.36,-10.7l-10.71,3.35a37.15,37.15 0 0 0 -24.44,24.45l-3.35,10.7z" id="svg_23"/>
  </g>
  <ellipse cx="135.04" cy="179.2" fill="#fad98f" rx="10.02" ry="30.97" transform="matrix(.707 -.707 .707 .707 -87.16 147.97)" id="svg_24"/>
  <ellipse cx="175.45" cy="219.62" fill="#fad98f" rx="6.61" ry="20.43" transform="matrix(.707 -.707 .707 .707 -103.9 188.39)" id="svg_25"/>
  <path d="m175.75,208.3l-0.67,2.13l-3.12,10a39.25,39.25 0 0 1 -1.36,3.72a42,42 0 0 1 -26.28,23.85l-12.11,3.79l3.8,-12.09a41.94,41.94 0 0 1 25.92,-27.06c0.56,-0.21 1.14,-0.4 1.73,-0.59l9.63,-3l2.46,-0.75z" fill="#f9eaa5" id="svg_26"/>
  <path d="m144.16,176.71l-3.79,12.09a44,44 0 0 1 -2.44,6.11a42,42 0 0 1 -25.21,21.53l-12.1,3.81l3.8,-12.11a42,42 0 0 1 27.64,-27.64l12.1,-3.79z" fill="#f9eaa5" id="svg_27"/>
  <path d="m144.16,176.71l-3.79,12.09a44,44 0 0 1 -2.44,6.11a86.32,86.32 0 0 1 -10,-8.63c-1,-1 -1.92,-1.95 -2.82,-2.93a42.09,42.09 0 0 1 6.92,-2.85l12.13,-3.79z" fill="#faefdc" id="svg_28"/>
  <path d="m175.08,210.43l-3.12,10a39.25,39.25 0 0 1 -1.36,3.72a48.57,48.57 0 0 1 -8.67,-11.43c0.56,-0.21 1.14,-0.4 1.73,-0.59l9.63,-3c0.6,0.37 1.19,0.81 1.79,1.3z" fill="#faefdc" id="svg_29"/>
  <path d="m132.15,386.23l97.48,0a9.38,9.38 0 0 0 9.37,-9.37l0,-188.48l-116.22,0l0,188.48a9.38,9.38 0 0 0 9.37,9.37z" fill="#22bce0" id="svg_30"/>
  <path d="m148.74,188.38l90.26,0a0,0 0 0 1 0,0l0,188.48a9.37,9.37 0 0 1 -9.37,9.37l-71.52,0a9.37,9.37 0 0 1 -9.37,-9.37l0,-188.48a0,0 0 0 1 0,0z" fill="#4fcae8" id="svg_31"/>
  <path d="m135.76,166.26l90.26,0l12.98,22.12l-90.26,0l-12.98,-22.12z" fill="#f9f2f9" id="svg_32"/>
  <path d="m141.06,147.17l79.66,0a5.3,5.3 0 0 1 5.3,5.3l0,13.79a0,0 0 0 1 0,0l-90.26,0a0,0 0 0 1 0,0l0,-13.79a5.3,5.3 0 0 1 5.3,-5.3z" fill="#ebd9ea" id="svg_33"/>
  <path d="m239,304.84l0,72a9.38,9.38 0 0 1 -9.38,9.37l-97.47,0a9.37,9.37 0 0 1 -9.37,-9.37l0,-72l26,0c11.28,0 11.28,13 22.56,13s11.28,-13 22.57,-13s11.28,13 22.56,13s11.25,-13 22.53,-13z" fill="#ebd9ea" id="svg_34"/>
  <path d="m148.74,188.38l-25.96,0l12.98,-22.12l12.98,22.12z" fill="#decee5" id="svg_35"/>
  <path d="m239,304.84l0,72a9.38,9.38 0 0 1 -9.38,9.37l-71.51,0a9.38,9.38 0 0 1 -9.37,-9.37l0,-72c11.28,0 11.28,13 22.56,13s11.28,-13 22.57,-13s11.28,13 22.56,13s11.29,-13 22.57,-13z" fill="#f9f2f9" id="svg_36"/>
  <path d="m199.6,276.77a20,20 0 0 1 -5.73,0.82a20.46,20.46 0 0 1 -19.65,-26.18l17.42,-46.3a2.38,2.38 0 0 1 4.46,0l17.42,46.3a20.46,20.46 0 0 1 -13.92,25.36z" fill="#f4e6f4" id="svg_37"/>
  <path d="m199.6,276.77a20.48,20.48 0 0 1 -15.13,-22.62l10.53,-48.34a2.38,2.38 0 0 1 0.77,-1.31a2.4,2.4 0 0 1 0.34,0.61l17.42,46.3a20.46,20.46 0 0 1 -13.93,25.36z" fill="#f9f2f9" id="svg_38"/>
  <ellipse cx="199.2" cy="239.12" fill="#fff" rx="5.08" ry="9.1" transform="matrix(.991 -.132 .132 .991 -29.74 28.3)" id="svg_39"/>
  <ellipse cx="201.79" cy="258.63" fill="#fff" rx="3.3" ry="5.74" transform="matrix(.991 -.132 .132 .991 -32.29 28.81)" id="svg_40"/>
  <ellipse cx="226.77" cy="210.77" fill="#83d5ef" rx="9.89" ry="17.73" id="svg_41"/>
  <ellipse cx="226.77" cy="246.89" fill="#83d5ef" rx="7.24" ry="12.99" id="svg_42"/>
  <path d="m401.62,279.36l0,101.12a5.75,5.75 0 0 1 -5.75,5.75l-83.43,0a5.74,5.74 0 0 1 -5.75,-5.75l0,-101.12a25.9,25.9 0 0 1 14.67,-23.36a20.29,20.29 0 0 0 11.22,-18.37l0,-36.04l43.14,0l0,36.06a20.3,20.3 0 0 0 11.28,18.35a25.92,25.92 0 0 1 14.62,23.36z" fill="#8c4735" id="svg_43"/>
  <path d="m401.62,279.36l0,92.82l-57.35,0a22.56,22.56 0 0 1 -22.57,-22.56l0,-62.16a25.91,25.91 0 0 1 14.66,-23.34a20.3,20.3 0 0 0 11.24,-18.37l0,-44.16l28.12,0l0,36.06a20.3,20.3 0 0 0 11.28,18.35a25.92,25.92 0 0 1 14.62,23.36z" fill="#a05740" id="svg_44"/>
  <ellipse cx="368.74" cy="220.29" fill="#b76049" rx="5.42" ry="15.75" id="svg_45"/>
  <ellipse cx="368.74" cy="246.67" fill="#b76049" rx="3.1" ry="9" id="svg_46"/>
  <path d="m306.69,279.36l94.93,0l0,70.26l-94.93,0l0,-70.26z" fill="#decee5" id="svg_47"/>
  <path d="m323,279.36a25.84,25.84 0 0 0 -1.31,8.1l0,62.16l79.92,0l0,-70.26l-78.61,0z" fill="#f4e6f4" id="svg_48"/>
  <ellipse cx="390.13" cy="298.22" fill="#fff" rx="7.56" ry="15.75" id="svg_49"/>
  <ellipse cx="390.13" cy="328.84" fill="#fff" rx="5.33" ry="11.44" id="svg_50"/>
  <circle cx="354.15" cy="314.49" fill="#fa4654" r="26.86" id="svg_51"/>
  <circle cx="354.15" cy="314.49" fill="#fff" r="18.24" id="svg_52"/>
  <path d="m382.56,194l0,7.57l-56.82,0l0,-7.57a9.43,9.43 0 0 1 9.47,-9.45l37.89,0a9.45,9.45 0 0 1 9.46,9.45z" fill="#fa4654" id="svg_53"/>
  <path d="m382.56,194l0,1.9l-51.15,0l0,-7.56a9.37,9.37 0 0 1 0.56,-3.23a9.47,9.47 0 0 1 3.24,-0.56l37.89,0a9.45,9.45 0 0 1 9.46,9.45z" fill="#fb626e" id="svg_54"/>
  <ellipse cx="353.51" cy="188.86" fill="#fa80a4" rx="11.33" ry="4.08" id="svg_55"/>
  <ellipse cx="372.48" cy="188.86" fill="#fa80a4" rx="6.48" ry="2.33" id="svg_56"/>
  <path d="m439.09,234.33l0,12.16a10.74,10.74 0 0 1 -10.74,10.74l-344.7,0a10.74,10.74 0 0 1 -10.74,-10.74l0,-12.16c0,-0.27 0,-0.53 0,-0.79a10.74,10.74 0 0 1 10.71,-10l344.7,0a10.74,10.74 0 0 1 10.71,10c0.05,0.26 0.06,0.52 0.06,0.79z" fill="#e52e44" id="svg_57"/>
  <path d="m439.06,233.54a10.74,10.74 0 0 1 -10.71,10l-344.7,0a10,10 0 1 1 0,-19.93l344.7,0a10.74,10.74 0 0 1 10.71,9.93z" fill="#fa4654" id="svg_58"/>
  <path d="m419.49,257.23l-2.69,19.51l-16.69,121.44a20.45,20.45 0 0 1 -20.26,17.67l-247.7,0a20.45,20.45 0 0 1 -20.26,-17.67l-16.69,-121.44l-2.69,-19.51l30.49,0l2.68,19.51l15.06,109.49l27,0l-11.5,-109.49l-2.05,-19.51l33.81,0l1.38,19.51l7.71,109.49l29.3,0l-3.88,-109.49l-0.68,-19.51l68.4,0l-0.68,19.51l-3.88,109.49l29.3,0l7.71,-109.49l1.32,-19.51l33.78,0l-2.05,19.51l-11.5,109.49l27,0l15.06,-109.49l2.71,-19.51l30.49,0z" fill="#e52e44" id="svg_59"/>
  <path d="m416.8,276.74l-16.69,121.44l-288.22,0l-16.69,-121.44l30.52,0l15.05,109.49l27,0l-11.53,-109.49l33.11,0l7.71,109.49l29.3,0l-3.88,-109.49l67.04,0l-3.88,109.49l29.3,0l7.71,-109.49l33.11,0l-11.53,109.49l27,0l15.06,-109.49l30.51,0z" fill="#fa4654" id="svg_60"/>
  <ellipse cx="128.92" cy="232.14" fill="#fb626e" rx="36.41" ry="8.56" id="svg_61"/>
  <ellipse cx="195.94" cy="232.14" fill="#fb626e" rx="22.09" ry="6.31" id="svg_62"/>
  <path d="m332.59,201.58l0,19.11l-2.89,2.89l-4.85,0a38.65,38.65 0 0 0 -1,-7.24a32.42,32.42 0 0 0 -2.69,-7.34l7.41,-7.42l4.02,0z" fill="#2e3140" id="svg_63"/>
  <path d="m377.85,175.42l-9.14,9.14l-23.12,0l20.7,-20.7a1.12,1.12 0 0 0 0,-1.59l-4.75,-4.74l-4,-4a1.12,1.12 0 0 0 -1.59,0l-92.67,92.66a8.18,8.18 0 0 1 -11.56,0a7.88,7.88 0 0 1 -1.86,-2.88a8.14,8.14 0 0 1 1.86,-8.69l92.66,-92.62a17.5,17.5 0 0 1 24.71,0l4,4l0.12,0.12l4.63,4.62a17.5,17.5 0 0 1 0.01,24.68z" fill="#2e3140" id="svg_64"/>
  <path d="m332.59,201.58l0,9.42a32.6,32.6 0 0 1 -8.75,5.3a32.42,32.42 0 0 0 -2.69,-7.34l7.41,-7.42l4.03,0.04z" fill="#334353" id="svg_65"/>
  <path d="m373.1,170.68l-13.87,13.88l-13.64,0l20.7,-20.7a1.12,1.12 0 0 0 0,-1.59l-4.75,-4.74l-4,-4l-4.74,-4.76a1.14,1.14 0 0 0 -1.59,0l-92.67,92.67a8.15,8.15 0 0 1 -8.68,1.87a8.14,8.14 0 0 1 1.86,-8.69l92.66,-92.62a17.5,17.5 0 0 1 24.71,0l4,4l0.12,0.12a17.49,17.49 0 0 1 -0.11,24.56z" fill="#334353" id="svg_66"/>
  <ellipse cx="334.94" cy="158.22" fill="#3f5d77" rx="14.37" ry="4.82" transform="matrix(.707 -.707 .707 .707 -13.78 283.18)" id="svg_67"/>
  <ellipse cx="315.02" cy="178.15" fill="#3f5d77" rx="9.76" ry="3.28" transform="matrix(.707 -.707 .707 .707 -33.7 274.93)" id="svg_68"/>
  <path d="m271.35,240.4a13.83,13.83 0 1 1 -7.28,-12.2a13.82,13.82 0 0 1 7.28,12.2z" fill="#334353" id="svg_69"/>
  <path d="m265.74,234.79a13.86,13.86 0 0 1 -20.44,12.21a13.86,13.86 0 0 1 18.77,-18.78a13.65,13.65 0 0 1 1.67,6.57z" fill="#3e4e60" id="svg_70"/>
  <circle cx="257.5" cy="240.4" fill="#2e3140" r="7.27" id="svg_71"/>
 </g>

</svg>